<?xml version="1.0" encoding="utf-8"?>
<!-- Generator: Adobe Illustrator 22.0.1, SVG Export Plug-In . SVG Version: 6.00 Build 0)  -->
<svg version="1.1" id="Layer_1" xmlns="http://www.w3.org/2000/svg" xmlns:xlink="http://www.w3.org/1999/xlink" x="0px" y="0px"
	 viewBox="0 0 1000 1000" style="enable-background:new 0 0 1000 1000;" xml:space="preserve">
<g>
	<path d="M223.1,816.9v-672L682,624.9V187.6h95v667.6L318,376.3v440.6H223.1z"/>
</g>
<g>
	<path d="M321.4,226c26.2-16.2,55-28.7,85.6-37c27.9-7.5,56.2-11.2,84.3-11.2c55.5,0,110.3,14.5,159.8,42.9
		c5.4,3.1,10.7,6.4,15.9,9.8v-29.4c-1.2-0.7-2.3-1.4-3.5-2c-39-22.4-81.3-36.9-125.7-43c-46-6.3-92.2-3.3-137.3,8.8
		c-34.6,9.3-67,23.7-96.7,42.7L321.4,226z"/>
	<path d="M568.3,659.1l-19.5-20.4c-6.3,1.8-12.6,3.6-19,5.3c-25,6.8-49.9,12.7-74.5,17.8c-2.7-1-5.4-2-8-3
		c-40.1-15-78.5-31.7-114.2-49.8V637c24.2,11.9,49.5,23.1,75.6,33.7c-25.9,4.4-51.2,7.8-75.6,10.1v25.1
		c38.4-3.6,78.8-9.7,120.4-18.1c65.3,23.4,130.1,40.4,190.3,50.1l-29.4-30.7c-36.8-7.4-75.1-17.4-113.9-29.8
		c11.9-2.9,23.9-5.9,35.9-9.2C547,665.3,557.7,662.2,568.3,659.1z"/>
	<path d="M876.8,565.8c-5.5,4.1-6.6,12-2.5,17.5c17.2,22.9,35.5,56.2,24.9,84.6c-10.7,28.5-49,47-107.3,52.5v25.1
		c70.4-6.3,116.2-30.2,130.7-68.9c11.6-30.9,1.8-68.4-28.3-108.4C890.2,562.7,882.3,561.6,876.8,565.8z"/>
	<path d="M859.9,341.1c-19.2-6-41.9-10.3-67.6-12.7c-0.1-0.2-0.2-0.4-0.3-0.6v58.9c3.5,9.4,6.6,19.1,9.3,28.9c0,0,0,0,0,0
		c9.9,36.7,13.2,74.2,10.1,111c-6.2,4-12.7,8-19.4,11.9v28.9c5.1-2.9,10.1-5.8,15-8.7c-3.4,18.1-8.4,36-15,53.5v58.6
		c22-38.6,36.2-80.5,42.2-124.3c0.2-1.8,0.5-3.6,0.7-5.4c33.6-22.6,59.1-45.2,75.9-67.2c20-26.2,27-51,20.9-73.6
		C924.5,373.7,900.3,353.8,859.9,341.1z M890.8,458.7c-12.1,16-30.4,33-53.6,50.1c0.9-33.4-3.1-66.8-11.9-99.7v0
		c-5-18.7-11.6-36.7-19.5-54c17.4,2.3,33,5.6,46.6,9.9c21.8,6.8,49.1,19.6,55.1,41.8C911.5,421.5,905.9,439,890.8,458.7z"/>
	<path d="M208.1,652.8c-11.8-21.8-21.1-45.1-27.7-69.6c-4.2-15.7-7.3-31.5-9.1-47.4c11.5,9.4,23.8,18.8,36.8,28v-30.9
		c-11-8.2-21.4-16.6-31.2-25c-2.7-2.3-5.2-4.6-7.8-6.9c-0.4-53.6,12.8-106.6,38.9-154.8v-54.7c-32,2.8-59,9.2-80.4,19
		c-25.9,12-43,28.7-50.9,49.9c-15.8,42.2,8.2,95.6,67.6,151.7c1,26,4.9,51.9,11.8,77.4c8.9,32.8,22.2,63.7,39.8,92.1
		c-28.6-3.1-53-8.7-71.5-16.3C101.6,656,87.9,643.7,84,629c-5.6-20.8,9.3-43.8,22.8-59.5c4.5-5.2,3.9-13.1-1.3-17.6
		c-5.2-4.5-13.1-3.9-17.6,1.3c-25.4,29.5-34.8,57.2-28,82.4c6.1,22.6,24.6,40.5,55.1,53.1c24.2,10,55.5,16.6,93.1,19.5V652.8z
		 M147.4,452.4c-1.1,8.3-2,16.7-2.5,25c-39-41.7-55.2-80-44.7-108.1c9.9-26.5,43.4-44.3,95.3-51.2c-1.7,2.8-3.4,5.7-5.1,8.6
		C167.9,365.7,153.5,408,147.4,452.4z"/>
	<path d="M670.8,766.1c-29,19.6-61.4,34.4-96.2,43.8c-82,22.1-167.6,11.4-241.5-30.3V808c34.8,17.8,71.9,29.5,110.7,34.8
		c15.6,2.2,31.3,3.2,47,3.2c30.3,0,60.6-4,90.4-12.1c38.7-10.4,74.7-27.1,107.2-49.7L670.8,766.1z"/>
</g>
</svg>
